<mxfile host="app.diagrams.net" modified="2023-05-17T20:29:42.473Z" agent="Mozilla/5.0 (Windows NT 10.0; Win64; x64) AppleWebKit/537.36 (KHTML, like Gecko) Chrome/113.0.0.0 Safari/537.36 Edg/113.0.1774.42" etag="BXz7M2DaAYqW3_I6usSs" version="21.3.2" type="device">
  <diagram name="Page-1" id="TGUL5ELbNVVm5ECDXv0W">
    <mxGraphModel dx="1264" dy="764" grid="1" gridSize="10" guides="1" tooltips="1" connect="1" arrows="1" fold="1" page="1" pageScale="1" pageWidth="850" pageHeight="1100" math="0" shadow="0">
      <root>
        <mxCell id="0" />
        <mxCell id="1" parent="0" />
        <mxCell id="h3XIEeHcZPe5eSqDg-93-142" value="" style="rounded=0;whiteSpace=wrap;html=1;fillColor=none;" vertex="1" parent="1">
          <mxGeometry x="260" y="60" width="340" height="610" as="geometry" />
        </mxCell>
        <mxCell id="h3XIEeHcZPe5eSqDg-93-86" value="Actor" style="shape=umlActor;verticalLabelPosition=bottom;verticalAlign=top;outlineConnect=0;html=1;horizontal=1;fontColor=none;noLabel=1;" vertex="1" parent="1">
          <mxGeometry x="120" y="333.5" width="40" height="80" as="geometry" />
        </mxCell>
        <mxCell id="h3XIEeHcZPe5eSqDg-93-87" value="Customer" style="text;html=1;align=center;verticalAlign=middle;resizable=0;points=[];autosize=1;strokeColor=none;fillColor=none;" vertex="1" parent="1">
          <mxGeometry x="100" y="413.5" width="80" height="30" as="geometry" />
        </mxCell>
        <mxCell id="h3XIEeHcZPe5eSqDg-93-94" value="" style="ellipse;whiteSpace=wrap;html=1;" vertex="1" parent="1">
          <mxGeometry x="373" y="110" width="105" height="70" as="geometry" />
        </mxCell>
        <mxCell id="h3XIEeHcZPe5eSqDg-93-95" value="Provide Feedback" style="text;html=1;strokeColor=none;fillColor=none;align=center;verticalAlign=middle;whiteSpace=wrap;rounded=0;" vertex="1" parent="1">
          <mxGeometry x="385.5" y="125" width="80" height="40" as="geometry" />
        </mxCell>
        <mxCell id="h3XIEeHcZPe5eSqDg-93-98" value="Actor" style="shape=umlActor;verticalLabelPosition=bottom;verticalAlign=top;html=1;outlineConnect=0;fontColor=none;noLabel=1;" vertex="1" parent="1">
          <mxGeometry x="695" y="227.5" width="40" height="80" as="geometry" />
        </mxCell>
        <mxCell id="h3XIEeHcZPe5eSqDg-93-99" value="System" style="text;html=1;strokeColor=none;fillColor=none;align=center;verticalAlign=middle;whiteSpace=wrap;rounded=0;" vertex="1" parent="1">
          <mxGeometry x="685" y="307.5" width="60" height="30" as="geometry" />
        </mxCell>
        <mxCell id="h3XIEeHcZPe5eSqDg-93-100" value="" style="endArrow=none;html=1;rounded=0;entryX=0;entryY=0.5;entryDx=0;entryDy=0;" edge="1" parent="1" target="h3XIEeHcZPe5eSqDg-93-94">
          <mxGeometry width="50" height="50" relative="1" as="geometry">
            <mxPoint x="180" y="370" as="sourcePoint" />
            <mxPoint x="220" y="140" as="targetPoint" />
            <Array as="points" />
          </mxGeometry>
        </mxCell>
        <mxCell id="h3XIEeHcZPe5eSqDg-93-102" value="" style="endArrow=none;html=1;rounded=0;exitX=1;exitY=0.5;exitDx=0;exitDy=0;" edge="1" parent="1" source="h3XIEeHcZPe5eSqDg-93-94">
          <mxGeometry width="50" height="50" relative="1" as="geometry">
            <mxPoint x="632.5" y="145" as="sourcePoint" />
            <mxPoint x="690" y="270" as="targetPoint" />
          </mxGeometry>
        </mxCell>
        <mxCell id="h3XIEeHcZPe5eSqDg-93-104" value="" style="ellipse;whiteSpace=wrap;html=1;" vertex="1" parent="1">
          <mxGeometry x="314.5" y="230.25" width="105" height="70" as="geometry" />
        </mxCell>
        <mxCell id="h3XIEeHcZPe5eSqDg-93-105" value="Rating" style="text;html=1;strokeColor=none;fillColor=none;align=center;verticalAlign=middle;whiteSpace=wrap;rounded=0;" vertex="1" parent="1">
          <mxGeometry x="337.5" y="250.25" width="60" height="30" as="geometry" />
        </mxCell>
        <mxCell id="h3XIEeHcZPe5eSqDg-93-106" value="" style="ellipse;whiteSpace=wrap;html=1;" vertex="1" parent="1">
          <mxGeometry x="449" y="220" width="105" height="70" as="geometry" />
        </mxCell>
        <mxCell id="h3XIEeHcZPe5eSqDg-93-109" value="Verbatim" style="text;html=1;strokeColor=none;fillColor=none;align=center;verticalAlign=middle;whiteSpace=wrap;rounded=0;" vertex="1" parent="1">
          <mxGeometry x="458" y="233.5" width="86.02" height="43.01" as="geometry" />
        </mxCell>
        <mxCell id="h3XIEeHcZPe5eSqDg-93-114" value="" style="ellipse;whiteSpace=wrap;html=1;" vertex="1" parent="1">
          <mxGeometry x="289.5" y="340" width="105" height="70" as="geometry" />
        </mxCell>
        <mxCell id="h3XIEeHcZPe5eSqDg-93-115" value="Contact Support" style="text;html=1;strokeColor=none;fillColor=none;align=center;verticalAlign=middle;whiteSpace=wrap;rounded=0;" vertex="1" parent="1">
          <mxGeometry x="301.5" y="355" width="80" height="40" as="geometry" />
        </mxCell>
        <mxCell id="h3XIEeHcZPe5eSqDg-93-117" value="" style="ellipse;whiteSpace=wrap;html=1;" vertex="1" parent="1">
          <mxGeometry x="462.5" y="305" width="93" height="62" as="geometry" />
        </mxCell>
        <mxCell id="h3XIEeHcZPe5eSqDg-93-118" value="Email form" style="text;html=1;strokeColor=none;fillColor=none;align=center;verticalAlign=middle;whiteSpace=wrap;rounded=0;" vertex="1" parent="1">
          <mxGeometry x="479" y="321" width="60" height="30" as="geometry" />
        </mxCell>
        <mxCell id="h3XIEeHcZPe5eSqDg-93-119" value="" style="endArrow=none;dashed=1;html=1;rounded=0;entryX=0;entryY=0.5;entryDx=0;entryDy=0;exitX=1;exitY=0.5;exitDx=0;exitDy=0;" edge="1" parent="1" source="h3XIEeHcZPe5eSqDg-93-114" target="h3XIEeHcZPe5eSqDg-93-117">
          <mxGeometry width="50" height="50" relative="1" as="geometry">
            <mxPoint x="350.5" y="445" as="sourcePoint" />
            <mxPoint x="460.5" y="425" as="targetPoint" />
          </mxGeometry>
        </mxCell>
        <mxCell id="h3XIEeHcZPe5eSqDg-93-120" value="" style="ellipse;whiteSpace=wrap;html=1;" vertex="1" parent="1">
          <mxGeometry x="456.5" y="386" width="105" height="70" as="geometry" />
        </mxCell>
        <mxCell id="h3XIEeHcZPe5eSqDg-93-121" value="Call" style="text;html=1;strokeColor=none;fillColor=none;align=center;verticalAlign=middle;whiteSpace=wrap;rounded=0;" vertex="1" parent="1">
          <mxGeometry x="464" y="398.5" width="90" height="45" as="geometry" />
        </mxCell>
        <mxCell id="h3XIEeHcZPe5eSqDg-93-122" value="" style="endArrow=none;html=1;rounded=0;exitX=1;exitY=0.5;exitDx=0;exitDy=0;" edge="1" parent="1" source="h3XIEeHcZPe5eSqDg-93-117">
          <mxGeometry width="50" height="50" relative="1" as="geometry">
            <mxPoint x="680" y="430" as="sourcePoint" />
            <mxPoint x="690" y="270" as="targetPoint" />
          </mxGeometry>
        </mxCell>
        <mxCell id="h3XIEeHcZPe5eSqDg-93-123" value="" style="endArrow=none;html=1;rounded=0;exitX=1;exitY=0.5;exitDx=0;exitDy=0;" edge="1" parent="1" source="h3XIEeHcZPe5eSqDg-93-120">
          <mxGeometry width="50" height="50" relative="1" as="geometry">
            <mxPoint x="680" y="430" as="sourcePoint" />
            <mxPoint x="690" y="270" as="targetPoint" />
          </mxGeometry>
        </mxCell>
        <mxCell id="h3XIEeHcZPe5eSqDg-93-124" value="&amp;lt;&amp;lt;include&amp;gt;&amp;gt;" style="text;html=1;strokeColor=none;fillColor=none;align=center;verticalAlign=middle;whiteSpace=wrap;rounded=0;labelBackgroundColor=default;" vertex="1" parent="1">
          <mxGeometry x="396.5" y="386" width="60" height="30" as="geometry" />
        </mxCell>
        <mxCell id="h3XIEeHcZPe5eSqDg-93-127" value="" style="endArrow=none;html=1;rounded=0;exitX=1;exitY=0.5;exitDx=0;exitDy=0;" edge="1" parent="1" source="h3XIEeHcZPe5eSqDg-93-130">
          <mxGeometry width="50" height="50" relative="1" as="geometry">
            <mxPoint x="680" y="430" as="sourcePoint" />
            <mxPoint x="690" y="430" as="targetPoint" />
          </mxGeometry>
        </mxCell>
        <mxCell id="h3XIEeHcZPe5eSqDg-93-128" value="" style="endArrow=none;dashed=1;html=1;rounded=0;entryX=0;entryY=0.5;entryDx=0;entryDy=0;exitX=1;exitY=0.5;exitDx=0;exitDy=0;" edge="1" parent="1" source="h3XIEeHcZPe5eSqDg-93-114" target="h3XIEeHcZPe5eSqDg-93-120">
          <mxGeometry width="50" height="50" relative="1" as="geometry">
            <mxPoint x="353.5" y="550" as="sourcePoint" />
            <mxPoint x="417.5" y="505" as="targetPoint" />
          </mxGeometry>
        </mxCell>
        <mxCell id="h3XIEeHcZPe5eSqDg-93-129" value="&amp;lt;&amp;lt;include&amp;gt;&amp;gt;" style="text;html=1;strokeColor=none;fillColor=none;align=center;verticalAlign=middle;whiteSpace=wrap;rounded=0;labelBackgroundColor=default;" vertex="1" parent="1">
          <mxGeometry x="396.5" y="340" width="60" height="30" as="geometry" />
        </mxCell>
        <mxCell id="h3XIEeHcZPe5eSqDg-93-132" value="" style="endArrow=none;html=1;rounded=0;exitX=1;exitY=0.5;exitDx=0;exitDy=0;" edge="1" parent="1" source="h3XIEeHcZPe5eSqDg-93-130">
          <mxGeometry width="50" height="50" relative="1" as="geometry">
            <mxPoint x="678" y="512.5" as="sourcePoint" />
            <mxPoint x="690" y="270" as="targetPoint" />
          </mxGeometry>
        </mxCell>
        <mxCell id="h3XIEeHcZPe5eSqDg-93-135" value="" style="endArrow=none;dashed=1;html=1;dashPattern=1 3;strokeWidth=2;rounded=0;entryX=0;entryY=1;entryDx=0;entryDy=0;exitX=0.5;exitY=0;exitDx=0;exitDy=0;" edge="1" parent="1" source="h3XIEeHcZPe5eSqDg-93-104">
          <mxGeometry width="50" height="50" relative="1" as="geometry">
            <mxPoint x="328.5" y="220.25" as="sourcePoint" />
            <mxPoint x="406.87689398770794" y="179.99873734152823" as="targetPoint" />
          </mxGeometry>
        </mxCell>
        <mxCell id="h3XIEeHcZPe5eSqDg-93-137" value="" style="endArrow=none;dashed=1;html=1;dashPattern=1 3;strokeWidth=2;rounded=0;entryX=1;entryY=1;entryDx=0;entryDy=0;exitX=0.5;exitY=0;exitDx=0;exitDy=0;" edge="1" parent="1" source="h3XIEeHcZPe5eSqDg-93-106" target="h3XIEeHcZPe5eSqDg-93-94">
          <mxGeometry width="50" height="50" relative="1" as="geometry">
            <mxPoint x="490" y="210" as="sourcePoint" />
            <mxPoint x="540" y="160" as="targetPoint" />
          </mxGeometry>
        </mxCell>
        <mxCell id="h3XIEeHcZPe5eSqDg-93-138" value="&amp;lt;&amp;lt;include&amp;gt;&amp;gt;" style="text;html=1;strokeColor=none;fillColor=none;align=center;verticalAlign=middle;whiteSpace=wrap;rounded=0;labelBackgroundColor=default;" vertex="1" parent="1">
          <mxGeometry x="351.5" y="190.25" width="60" height="30" as="geometry" />
        </mxCell>
        <mxCell id="h3XIEeHcZPe5eSqDg-93-139" value="&amp;lt;&amp;lt;include&amp;gt;&amp;gt;" style="text;html=1;strokeColor=none;fillColor=none;align=center;verticalAlign=middle;whiteSpace=wrap;rounded=0;labelBackgroundColor=default;" vertex="1" parent="1">
          <mxGeometry x="458" y="180" width="60" height="30" as="geometry" />
        </mxCell>
        <mxCell id="h3XIEeHcZPe5eSqDg-93-140" value="Actor" style="shape=umlActor;verticalLabelPosition=bottom;verticalAlign=top;html=1;outlineConnect=0;fontColor=none;noLabel=1;" vertex="1" parent="1">
          <mxGeometry x="695" y="372.5" width="40" height="80" as="geometry" />
        </mxCell>
        <mxCell id="h3XIEeHcZPe5eSqDg-93-141" value="Customer Care Agent" style="text;html=1;strokeColor=none;fillColor=none;align=center;verticalAlign=middle;whiteSpace=wrap;rounded=0;" vertex="1" parent="1">
          <mxGeometry x="680" y="452.5" width="70" height="30" as="geometry" />
        </mxCell>
        <mxCell id="h3XIEeHcZPe5eSqDg-93-143" value="Post Purchase Services" style="text;html=1;strokeColor=none;fillColor=none;align=center;verticalAlign=middle;whiteSpace=wrap;rounded=0;" vertex="1" parent="1">
          <mxGeometry x="359" y="60" width="135" height="40" as="geometry" />
        </mxCell>
        <mxCell id="h3XIEeHcZPe5eSqDg-93-130" value="" style="ellipse;whiteSpace=wrap;html=1;" vertex="1" parent="1">
          <mxGeometry x="480" y="470" width="105" height="70" as="geometry" />
        </mxCell>
        <mxCell id="h3XIEeHcZPe5eSqDg-93-131" value="Assign case to an Agent" style="text;html=1;strokeColor=none;fillColor=none;align=center;verticalAlign=middle;whiteSpace=wrap;rounded=0;" vertex="1" parent="1">
          <mxGeometry x="487.5" y="482.5" width="90" height="45" as="geometry" />
        </mxCell>
        <mxCell id="h3XIEeHcZPe5eSqDg-93-125" value="" style="ellipse;whiteSpace=wrap;html=1;" vertex="1" parent="1">
          <mxGeometry x="472" y="562.5000000000001" width="113" height="75.33" as="geometry" />
        </mxCell>
        <mxCell id="h3XIEeHcZPe5eSqDg-93-126" value="Handle Case" style="text;html=1;strokeColor=none;fillColor=none;align=center;verticalAlign=middle;whiteSpace=wrap;rounded=0;" vertex="1" parent="1">
          <mxGeometry x="488.5" y="580.16" width="80" height="40" as="geometry" />
        </mxCell>
        <mxCell id="h3XIEeHcZPe5eSqDg-93-145" value="" style="endArrow=none;html=1;rounded=0;exitX=1;exitY=0.5;exitDx=0;exitDy=0;" edge="1" parent="1" source="h3XIEeHcZPe5eSqDg-93-125">
          <mxGeometry width="50" height="50" relative="1" as="geometry">
            <mxPoint x="660" y="590" as="sourcePoint" />
            <mxPoint x="690" y="430" as="targetPoint" />
          </mxGeometry>
        </mxCell>
        <mxCell id="h3XIEeHcZPe5eSqDg-93-146" value="" style="endArrow=none;html=1;rounded=0;exitX=0;exitY=0.5;exitDx=0;exitDy=0;" edge="1" parent="1" source="h3XIEeHcZPe5eSqDg-93-114">
          <mxGeometry width="50" height="50" relative="1" as="geometry">
            <mxPoint x="170" y="370" as="sourcePoint" />
            <mxPoint x="180" y="375" as="targetPoint" />
          </mxGeometry>
        </mxCell>
        <mxCell id="h3XIEeHcZPe5eSqDg-93-147" value="" style="ellipse;whiteSpace=wrap;html=1;" vertex="1" parent="1">
          <mxGeometry x="310" y="567.33" width="106" height="70.67" as="geometry" />
        </mxCell>
        <mxCell id="h3XIEeHcZPe5eSqDg-93-148" value="Follow up on the case" style="text;html=1;strokeColor=none;fillColor=none;align=center;verticalAlign=middle;whiteSpace=wrap;rounded=0;" vertex="1" parent="1">
          <mxGeometry x="329.5" y="586.66" width="67" height="32" as="geometry" />
        </mxCell>
        <mxCell id="h3XIEeHcZPe5eSqDg-93-150" value="" style="endArrow=classic;html=1;rounded=0;exitX=0;exitY=0.5;exitDx=0;exitDy=0;entryX=1;entryY=0.5;entryDx=0;entryDy=0;" edge="1" parent="1" source="h3XIEeHcZPe5eSqDg-93-125" target="h3XIEeHcZPe5eSqDg-93-147">
          <mxGeometry width="50" height="50" relative="1" as="geometry">
            <mxPoint x="400" y="550" as="sourcePoint" />
            <mxPoint x="450" y="500" as="targetPoint" />
          </mxGeometry>
        </mxCell>
        <mxCell id="h3XIEeHcZPe5eSqDg-93-151" value="" style="ellipse;whiteSpace=wrap;html=1;" vertex="1" parent="1">
          <mxGeometry x="322" y="451" width="105" height="70" as="geometry" />
        </mxCell>
        <mxCell id="h3XIEeHcZPe5eSqDg-93-152" value="Get Support Rating" style="text;html=1;strokeColor=none;fillColor=none;align=center;verticalAlign=middle;whiteSpace=wrap;rounded=0;" vertex="1" parent="1">
          <mxGeometry x="329.5" y="463.5" width="90" height="45" as="geometry" />
        </mxCell>
        <mxCell id="h3XIEeHcZPe5eSqDg-93-153" value="&amp;lt;&amp;lt;include&amp;gt;&amp;gt;" style="text;html=1;strokeColor=none;fillColor=none;align=center;verticalAlign=middle;whiteSpace=wrap;rounded=0;labelBackgroundColor=default;" vertex="1" parent="1">
          <mxGeometry x="329.5" y="527.5" width="60" height="30" as="geometry" />
        </mxCell>
        <mxCell id="h3XIEeHcZPe5eSqDg-93-154" value="" style="endArrow=none;dashed=1;html=1;rounded=0;entryX=0.5;entryY=1;entryDx=0;entryDy=0;exitX=0.5;exitY=0;exitDx=0;exitDy=0;" edge="1" target="h3XIEeHcZPe5eSqDg-93-151" parent="1" source="h3XIEeHcZPe5eSqDg-93-147">
          <mxGeometry width="50" height="50" relative="1" as="geometry">
            <mxPoint x="259.5" y="440" as="sourcePoint" />
            <mxPoint x="283" y="570" as="targetPoint" />
          </mxGeometry>
        </mxCell>
      </root>
    </mxGraphModel>
  </diagram>
</mxfile>
